With: Rutger Hauer, Reinout Scholten van Aschat and Gijs Naber

De Heineken Ontvoering is geïnspireerd op de bekendste ontvoeringszaak in Nederland. De biermagnaat Alfred Heineken wordt in 1983 samen met zijn chauffeur Ab Doderer ontvoerd door vier mannen, die 35 miljoen gulden losgeld eisen. Vier jonge, op geld beluste criminelen die elkaar al van jongs af aan kennen en een hechte clan vormen, sluiten Heineken en Doderer twee weken lang op in een Amsterdamse loods. De film laat het spannende verhaal van de ontvoering en de jacht op de daders zien, maar biedt ook een kijkje in de psychologische machtsstrijd tussen Heineken en zijn ontvoerders.

------------------------ Dutch Friends ------------------------
---------------------------------------------------------------
- Bezoek ook eens mijn vrienden op:  http://www.Film-Test.nl --
----- voor mijn Nederlandse Sync. ondertitels ---- en meer ----
------- http://www.Film-Test.nl ---- voor Films en meer -------
---------------------------------------------------------------

General:

Complete name                    : De Heineken Ontvoering\De Heineken Ontvoering.avi
Format                           : AVI
Format/Info                      : Audio Video Interleave
File size                        : 1.67 GiB
Duration                         : 1h 57mn
Overall bit rate                 : 2 023 Kbps

Video:

Format                           : MPEG-4 Visual
Format profile                   : Simple@L3
Format settings, BVOP            : No
Format settings, QPel            : No
Format settings, GMC             : No warppoints
Format settings, Matrix          : Default (H.263)
Codec ID                         : XVID
Codec ID/Hint                    : XviD
Duration                         : 1h 57mn
Bit rate                         : 1 564 Kbps
Width                            : 720 pixels
Height                           : 304 pixels
Display aspect ratio             : 2.35:1
Frame rate                       : 25.000 fps
Color space                      : YUV
Chroma subsampling               : 4:2:0
Bit depth                        : 8 bits
Scan type                        : Progressive
Compression mode                 : Lossy
Bits/(Pixel*Frame)               : 0.286
Stream size                      : 1.29 GiB (77%)
Writing library                  : XviD 1.1.2 (UTC 2006-11-01)

Audio:

Format                           : AC-3
Format/Info                      : Audio Coding 3
Mode extension                   : CM (complete main)
Codec ID                         : 2000
Duration                         : 1h 57mn
Bit rate mode                    : Constant
Bit rate                         : 448 Kbps
Channel(s)                       : 6 channels
Channel positions                : Front: L C R, Side: L R, LFE
Sampling rate                    : 48.0 KHz
Bit depth                        : 16 bits
Compression mode                 : Lossy
Stream size                      : 378 MiB (22%)
Alignment                        : Aligned on interleaves
Interleave, duration             : 32 ms (0.80 video frame)
Interleave, preload duration     : 288 ms

